<svg xmlns="http://www.w3.org/2000/svg" xmlns:xlink="http://www.w3.org/1999/xlink" width="180px" zoomAndPan="magnify" viewBox="68 160 245 50" preserveAspectRatio="xMidYMid meet" version="1.0"><defs><g/></defs><g fill="#000000" fill-opacity="1"><g transform="translate(67.32589, 195.601388)"><g><path d="M 1.90625 0 L 1.90625 -19.625 L 8.609375 -19.625 C 10.910156 -19.625 12.800781 -19.21875 14.28125 -18.40625 C 15.769531 -17.59375 16.875 -16.453125 17.59375 -14.984375 C 18.3125 -13.523438 18.671875 -11.800781 18.671875 -9.8125 C 18.671875 -7.832031 18.3125 -6.109375 17.59375 -4.640625 C 16.875 -3.171875 15.769531 -2.03125 14.28125 -1.21875 C 12.800781 -0.40625 10.910156 0 8.609375 0 Z M 5.5 -3.078125 L 8.4375 -3.078125 C 10.082031 -3.078125 11.378906 -3.34375 12.328125 -3.875 C 13.285156 -4.414062 13.96875 -5.1875 14.375 -6.1875 C 14.789062 -7.1875 15 -8.394531 15 -9.8125 C 15 -11.21875 14.789062 -12.425781 14.375 -13.4375 C 13.96875 -14.445312 13.285156 -15.222656 12.328125 -15.765625 C 11.378906 -16.304688 10.082031 -16.578125 8.4375 -16.578125 L 5.5 -16.578125 Z M 5.5 -3.078125 "/></g></g></g><g fill="#000000" fill-opacity="1"><g transform="translate(91.600296, 195.601388)"><g><path d="M 0.640625 0 L 7.828125 -19.625 L 11.859375 -19.625 L 19.046875 0 L 15.234375 0 L 13.65625 -4.546875 L 6 -4.546875 L 4.40625 0 Z M 6.984375 -7.34375 L 12.671875 -7.34375 L 9.8125 -15.515625 Z M 6.984375 -7.34375 "/></g></g></g><g fill="#000000" fill-opacity="1"><g transform="translate(115.594424, 195.601388)"><g><path d="M 1.90625 0 L 1.90625 -19.625 L 5.5 -19.625 L 5.5 -2.796875 L 14.1875 -2.796875 L 14.1875 0 Z M 1.90625 0 "/></g></g></g><g fill="#000000" fill-opacity="1"><g transform="translate(135.384463, 195.601388)"><g><path d="M 1.90625 0 L 1.90625 -19.625 L 5.5 -19.625 L 5.5 -2.796875 L 14.1875 -2.796875 L 14.1875 0 Z M 1.90625 0 "/></g></g></g><g fill="#000000" fill-opacity="1"><g transform="translate(155.174501, 195.601388)"><g><path d="M 3.359375 -7.09375 C 2.710938 -7.09375 2.175781 -7.296875 1.75 -7.703125 C 1.332031 -8.117188 1.125 -8.617188 1.125 -9.203125 C 1.125 -9.796875 1.332031 -10.296875 1.75 -10.703125 C 2.175781 -11.117188 2.710938 -11.328125 3.359375 -11.328125 C 4.015625 -11.328125 4.550781 -11.117188 4.96875 -10.703125 C 5.394531 -10.296875 5.609375 -9.796875 5.609375 -9.203125 C 5.609375 -8.617188 5.394531 -8.117188 4.96875 -7.703125 C 4.550781 -7.296875 4.015625 -7.09375 3.359375 -7.09375 Z M 3.359375 -7.09375 "/></g></g></g><g fill="#000000" fill-opacity="1"><g transform="translate(166.248029, 195.601388)"><g><path d="M 1.90625 0 L 1.90625 -19.625 L 14.71875 -19.625 L 14.71875 -16.75 L 5.5 -16.75 L 5.5 -11.359375 L 13.890625 -11.359375 L 13.890625 -8.546875 L 5.5 -8.546875 L 5.5 -2.890625 L 14.71875 -2.890625 L 14.71875 0 Z M 1.90625 0 "/></g></g></g><g fill="#000000" fill-opacity="1"><g transform="translate(186.794797, 195.601388)"><g/></g></g><g fill="#000000" fill-opacity="1"><g transform="translate(197.812283, 195.601388)"><g><path d="M 10.796875 0.34375 C 8.816406 0.34375 7.113281 -0.0820312 5.6875 -0.9375 C 4.269531 -1.789062 3.175781 -2.976562 2.40625 -4.5 C 1.644531 -6.019531 1.265625 -7.78125 1.265625 -9.78125 C 1.265625 -11.789062 1.644531 -13.5625 2.40625 -15.09375 C 3.175781 -16.625 4.269531 -17.816406 5.6875 -18.671875 C 7.113281 -19.535156 8.816406 -19.96875 10.796875 -19.96875 C 13.148438 -19.96875 15.078125 -19.382812 16.578125 -18.21875 C 18.085938 -17.050781 19.03125 -15.410156 19.40625 -13.296875 L 15.453125 -13.296875 C 15.210938 -14.359375 14.691406 -15.191406 13.890625 -15.796875 C 13.097656 -16.410156 12.046875 -16.71875 10.734375 -16.71875 C 8.921875 -16.71875 7.5 -16.097656 6.46875 -14.859375 C 5.445312 -13.628906 4.9375 -11.9375 4.9375 -9.78125 C 4.9375 -7.632812 5.445312 -5.945312 6.46875 -4.71875 C 7.5 -3.5 8.921875 -2.890625 10.734375 -2.890625 C 12.046875 -2.890625 13.097656 -3.171875 13.890625 -3.734375 C 14.691406 -4.304688 15.210938 -5.097656 15.453125 -6.109375 L 19.40625 -6.109375 C 19.03125 -4.085938 18.085938 -2.503906 16.578125 -1.359375 C 15.078125 -0.222656 13.148438 0.34375 10.796875 0.34375 Z M 10.796875 0.34375 "/></g></g></g><g fill="#000000" fill-opacity="1"><g transform="translate(222.815415, 195.601388)"><g><path d="M 1.90625 0 L 1.90625 -19.625 L 5.5 -19.625 L 5.5 -2.796875 L 14.1875 -2.796875 L 14.1875 0 Z M 1.90625 0 "/></g></g></g><g fill="#000000" fill-opacity="1"><g transform="translate(242.605461, 195.601388)"><g><path d="M 11.109375 0.34375 C 9.140625 0.34375 7.421875 -0.0859375 5.953125 -0.953125 C 4.492188 -1.816406 3.347656 -3.007812 2.515625 -4.53125 C 1.679688 -6.050781 1.265625 -7.8125 1.265625 -9.8125 C 1.265625 -11.8125 1.679688 -13.570312 2.515625 -15.09375 C 3.347656 -16.625 4.492188 -17.816406 5.953125 -18.671875 C 7.421875 -19.535156 9.140625 -19.96875 11.109375 -19.96875 C 13.046875 -19.96875 14.753906 -19.535156 16.234375 -18.671875 C 17.710938 -17.816406 18.863281 -16.625 19.6875 -15.09375 C 20.507812 -13.570312 20.921875 -11.8125 20.921875 -9.8125 C 20.921875 -7.8125 20.507812 -6.050781 19.6875 -4.53125 C 18.863281 -3.007812 17.710938 -1.816406 16.234375 -0.953125 C 14.753906 -0.0859375 13.046875 0.34375 11.109375 0.34375 Z M 11.109375 -2.890625 C 12.972656 -2.890625 14.460938 -3.503906 15.578125 -4.734375 C 16.691406 -5.972656 17.25 -7.664062 17.25 -9.8125 C 17.25 -11.96875 16.691406 -13.660156 15.578125 -14.890625 C 14.460938 -16.128906 12.972656 -16.75 11.109375 -16.75 C 9.234375 -16.75 7.734375 -16.128906 6.609375 -14.890625 C 5.492188 -13.660156 4.9375 -11.96875 4.9375 -9.8125 C 4.9375 -7.664062 5.492188 -5.972656 6.609375 -4.734375 C 7.734375 -3.503906 9.234375 -2.890625 11.109375 -2.890625 Z M 11.109375 -2.890625 "/></g></g></g><g fill="#000000" fill-opacity="1"><g transform="translate(269.122051, 195.601388)"><g><path d="M 1.90625 0 L 1.90625 -19.625 L 5.5 -19.625 L 14.71875 -5.8125 L 14.71875 -19.625 L 18.3125 -19.625 L 18.3125 0 L 14.71875 0 L 5.5 -13.796875 L 5.5 0 Z M 1.90625 0 "/></g></g></g><g fill="#000000" fill-opacity="1"><g transform="translate(293.676727, 195.601388)"><g><path d="M 1.90625 0 L 1.90625 -19.625 L 14.71875 -19.625 L 14.71875 -16.75 L 5.5 -16.75 L 5.5 -11.359375 L 13.890625 -11.359375 L 13.890625 -8.546875 L 5.5 -8.546875 L 5.5 -2.890625 L 14.71875 -2.890625 L 14.71875 0 Z M 1.90625 0 "/></g></g></g></svg>